<mxfile host="app.diagrams.net" modified="2021-04-19T04:37:55.402Z" agent="5.0 (Windows NT 10.0; Win64; x64) AppleWebKit/537.36 (KHTML, like Gecko) Chrome/89.0.4389.114 Safari/537.36" etag="OKEkIs_C6_OwwInnayf3" version="14.6.1" type="github">
  <diagram id="sr8Gqz02iN4udMaazy5a" name="Page-1">
    <mxGraphModel dx="860" dy="471" grid="1" gridSize="10" guides="1" tooltips="1" connect="1" arrows="1" fold="1" page="1" pageScale="1" pageWidth="827" pageHeight="1169" math="0" shadow="0">
      <root>
        <mxCell id="0" />
        <mxCell id="1" parent="0" />
      </root>
    </mxGraphModel>
  </diagram>
</mxfile>
